<svg width="42" height="41" viewBox="0 0 42 41" fill="none" xmlns="http://www.w3.org/2000/svg">
<g clip-path="url(#clip0)">
<path d="M21.0011 41.0003C32.5986 41.0003 42.0002 31.8225 42.0002 20.5012C42.0002 9.17988 32.5986 0.00212097 21.0011 0.00212097C9.40368 0.00212097 0.0020752 9.17988 0.0020752 20.5012C0.0020752 31.8225 9.40368 41.0003 21.0011 41.0003Z" fill="white"/>
<path d="M40.7995 13.665C40.7972 13.6585 40.7952 13.653 40.7929 13.6471C38.1052 6.24953 31.1921 0.806789 22.8861 0.0843048C26.1001 1.80435 27.0387 7.25392 27.8611 13.6651C28.4228 18.0442 28.4265 22.8693 27.8718 27.2539C27.0564 33.6998 26.1138 39.1878 22.8862 40.915C31.2074 40.1912 38.1305 34.7297 40.8076 27.3122C40.8146 27.2924 40.8206 27.2731 40.8278 27.2539C41.5838 25.1387 41.9999 22.8671 41.9999 20.5003C41.9996 18.1024 41.5741 15.803 40.7995 13.665Z" fill="#BE2126"/>
<path d="M28.9421 13.665C28.1201 7.25375 26.1001 1.80426 22.8858 0.0842191C22.2641 0.0304678 21.6354 0 20.9995 0C11.8642 0 4.09536 5.69565 1.20658 13.6471C1.20428 13.6529 1.20224 13.6585 1.19993 13.665C0.425426 15.803 0 18.1024 0 20.5001C0 22.8673 0.416115 25.1385 1.17209 27.2538C1.1791 27.2729 1.18539 27.2923 1.19231 27.312C4.06974 35.284 11.8492 40.9996 20.9994 40.9996C21.6354 40.9996 22.2641 40.9691 22.8857 40.9147C26.1133 39.1876 28.1372 33.6995 28.9526 27.2537C29.5074 22.8689 29.5038 18.0441 28.9421 13.665Z" fill="#CD2227"/>
<path d="M41.6438 16.7553H27.3472C27.5054 19.1059 27.5163 21.5196 27.3744 23.8763H41.7118C41.8995 22.7781 41.9996 21.651 41.9996 20.5003C41.9996 19.2201 41.8749 17.9697 41.6438 16.7553Z" fill="#E4E4E4"/>
<path d="M29.2382 16.7553H19.0849V0.0876007C16.4873 0.316455 14.0277 1.00813 11.7902 2.07666V16.7557H0.355822C0.124666 17.97 0 19.2205 0 20.5005C0 21.6512 0.100105 22.7782 0.287814 23.8765H11.7899V38.9233C14.0274 39.9917 16.4871 40.6835 19.0847 40.9126V23.8763H29.2651C29.4073 21.5192 29.396 19.1055 29.2382 16.7553Z" fill="#F3F4F5"/>
</g>
<defs>
<clipPath id="clip0">
<rect width="42" height="41" fill="white"/>
</clipPath>
</defs>
</svg>
