<svg width="42" height="42" viewBox="0 0 42 42" fill="none" xmlns="http://www.w3.org/2000/svg">
<path d="M3.69846 9.10092C2.34424 11.0665 1.31508 13.2735 0.69104 15.6456H10.2435L3.69846 9.10092Z" fill="#29337A"/>
<path d="M15.1187 0.840572C12.6991 1.54521 10.4583 2.6696 8.48511 4.13616L15.1187 10.7697V0.840572Z" fill="#29337A"/>
<path d="M8.97852 38.2141C10.8294 39.5093 12.8972 40.5119 15.1187 41.1588V32.0749L8.97852 38.2141Z" fill="#29337A"/>
<path d="M0.932007 27.2006C1.62636 29.4497 2.69037 31.5363 4.05018 33.3925L10.2421 27.2006H0.932007Z" fill="#29337A"/>
<path d="M4.04498 8.61353C3.92759 8.77402 3.81187 8.93681 3.69847 9.10129L10.2435 15.646H0.691046C0.536233 16.2352 0.409882 16.8357 0.305786 17.4445H12.8767L4.04498 8.61353Z" fill="white"/>
<path d="M8.49146 37.8676C8.65123 37.9866 8.81545 38.1 8.97851 38.2141L15.1187 32.0746V41.1585C15.7086 41.331 16.3078 41.4799 16.9173 41.5996V29.442L8.49146 37.8676Z" fill="white"/>
<path d="M0.465576 25.4021C0.595917 26.0115 0.749755 26.6117 0.93179 27.2006H10.242L4.05005 33.3925C4.72348 34.3126 5.47023 35.1761 6.28163 35.9745L16.854 25.4021H0.465576Z" fill="white"/>
<path d="M15.1189 0.840572V10.7697L8.48525 4.13652C7.57074 4.8166 6.71589 5.5716 5.92383 6.38894L16.9171 17.3822V0.39954C16.3079 0.51995 15.7088 0.669178 15.1189 0.840572Z" fill="white"/>
<path d="M15.1188 27.1372L15.0558 27.2006H15.1188V27.1372Z" fill="#D32030"/>
<path d="M16.8544 25.4021H16.9173V25.3388L16.8544 25.4021Z" fill="#D32030"/>
<path d="M24.9359 17.4442H24.8752V17.5052L24.9359 17.4442Z" fill="#D32030"/>
<path d="M15.1808 15.646L15.1188 15.5837V15.646H15.1808Z" fill="#D32030"/>
<path d="M16.9172 17.3821V17.4442H16.9793L16.9172 17.3821Z" fill="#D32030"/>
<path d="M26.6735 36.5101V41.2175C28.9239 40.5875 31.0222 39.5945 32.8989 38.3006L27.7982 33.1999C27.3906 34.632 27.2415 35.3724 26.6735 36.5101Z" fill="#252F6C"/>
<path d="M27.825 9.61785L33.3932 4.04963C31.3928 2.58466 29.1234 1.46825 26.6733 0.781876V5.61762C27.3282 6.92901 27.3833 7.92546 27.825 9.61785Z" fill="#252F6C"/>
<path d="M37.8636 33.5149C39.2659 31.6285 40.3588 29.4991 41.0687 27.2006H31.5493L37.8636 33.5149Z" fill="#252F6C"/>
<path d="M41.3091 15.646C40.6718 13.2238 39.6117 10.9754 38.2148 8.97892L31.547 15.646H41.3091Z" fill="#252F6C"/>
<path d="M29.0508 25.7579L30.4938 27.201L37.4013 34.1084C37.5582 33.9121 37.7139 33.7165 37.8639 33.5152L31.5496 27.201H41.0689C41.2504 26.6124 41.4045 26.0119 41.5344 25.4024H29.1857C29.1655 25.6574 29.075 25.5046 29.0508 25.7579Z" fill="#E7E7E7"/>
<path d="M27.6069 10.671L33.8674 4.4097C33.7106 4.28805 33.5535 4.16702 33.3932 4.04962L27.825 9.61785C27.8827 9.83801 27.5532 10.4455 27.6069 10.671Z" fill="#E7E7E7"/>
<path d="M26.6734 5.23066V0.781508C26.0842 0.616409 25.4844 0.476492 24.8749 0.362377V2.5326C25.5441 3.25808 26.1439 4.16931 26.6734 5.23066Z" fill="#E7E7E7"/>
<path d="M28.9093 17.4442H41.6947C41.5909 16.8354 41.4643 16.2352 41.3094 15.6456H31.5473L38.2151 8.97856C37.5596 8.04214 36.8311 7.1615 36.0353 6.34549L28.525 13.8551C28.7273 15.2173 28.8178 16.0084 28.9093 17.4442Z" fill="#E7E7E7"/>
<path d="M27.4948 32.8958L32.8992 38.3009C33.7981 37.6818 34.6446 36.9928 35.4345 36.2448L28.3257 29.1357C28.0988 30.4504 27.8296 31.7203 27.4948 32.8958Z" fill="#E7E7E7"/>
<path d="M24.8752 39.2177V41.6365C25.4847 41.5231 26.0842 41.3825 26.6738 41.2174V36.51C26.1439 37.5718 25.5441 38.4932 24.8752 39.2177Z" fill="#E7E7E7"/>
<path d="M28.525 13.8551L36.0346 6.34549C35.3585 5.65113 34.6336 5.00492 33.867 4.4097L27.9662 10.3115C28.2285 11.4077 28.3475 12.6624 28.525 13.8551Z" fill="#D71F28"/>
<path d="M19.9519 0.0258909C20.3018 0.00895541 20.6506 0 20.9997 0C20.6486 0 20.2991 0.00895541 19.9519 0.0258909Z" fill="#D32030"/>
<path d="M20.9997 42C20.6505 42 20.3017 41.9905 19.9525 41.9735C20.2997 41.9911 20.6486 42 20.9997 42Z" fill="#D32030"/>
<path d="M20.9996 41.9999C22.3246 41.9999 23.6184 41.8716 24.8751 41.6365V39.2177C23.772 40.4133 22.4815 41.9999 20.9996 41.9999Z" fill="#D32030"/>
<path d="M41.6943 17.4442H29.075C29.2422 20.0779 29.222 22.7863 29.0146 25.4021H41.5345C41.8376 23.9819 42 22.5104 42 21.0004C42 19.7874 41.8919 18.601 41.6943 17.4442Z" fill="#D71F28"/>
<path d="M29.0508 25.7579C28.9341 26.9987 28.5276 27.9655 28.3253 29.136L35.4341 36.2448C36.1374 35.5783 36.7948 34.8654 37.401 34.1084L30.4938 27.2006L29.0508 25.7579Z" fill="#D71F28"/>
<path d="M24.8752 2.68875V0.362739C23.6189 0.128302 22.325 0 20.9996 0C22.4815 0 23.772 1.49343 24.8752 2.68875Z" fill="#D32030"/>
<path d="M26.6733 37.4183C27.2413 36.2803 27.7284 34.9703 28.1363 33.5385L26.6733 32.0756V37.4183Z" fill="#29337A"/>
<path d="M28.3183 9.12442C27.8759 7.43202 27.3282 5.89346 26.6733 4.58207V10.7687L28.3183 9.12442Z" fill="#29337A"/>
<path d="M29.4584 26.1651C29.4823 25.9117 29.5038 25.6574 29.5244 25.4021H28.6954L29.4584 26.1651Z" fill="white"/>
<path d="M26.6734 10.7688V4.58181C26.1435 3.52046 25.5441 2.6086 24.8749 1.88375V13.4022L28.4867 9.79031C28.4324 9.56483 28.3753 9.34396 28.3183 9.1238L26.6734 10.7688Z" fill="white"/>
<path d="M24.9359 17.4442H29.5847C29.4935 16.0085 29.3483 14.5959 29.1463 13.2341L24.9359 17.4442Z" fill="white"/>
<path d="M24.8752 40.116C25.5444 39.3905 26.1439 38.4793 26.6738 37.4179V32.0752L28.1367 33.5381C28.4722 32.362 28.7537 31.1056 28.9813 29.7909L24.8753 25.6853L24.8752 40.116Z" fill="white"/>
<path d="M24.8752 40.116V25.6853L28.9809 29.7912C29.1828 28.6203 29.3417 27.4061 29.458 26.1651L28.695 25.4021H29.524C29.7312 22.7862 29.7514 20.0779 29.5843 17.4442H24.9356L29.1457 13.2341C28.9683 12.041 28.7488 10.8871 28.4865 9.79057L24.8753 13.4024V1.88401C23.772 0.688325 22.4815 0 20.9996 0C20.6505 0 20.3017 0.00895541 19.9519 0.0258909C18.919 0.077584 17.906 0.204645 16.9172 0.399624V17.3822L5.9237 6.38893C5.24823 7.08595 4.61993 7.82863 4.04492 8.61351L11.0774 15.646L12.8766 17.4445H0.305725C0.108795 18.601 0 19.7874 0 21.0004C0 22.5107 0.163148 23.9819 0.465504 25.4021H16.8543L6.28182 35.9745C6.97414 36.6546 7.71123 37.2879 8.4915 37.8675L16.917 29.442V41.5998C17.9057 41.7947 18.9193 41.9217 19.9522 41.9735C20.3014 41.9904 20.6502 42 20.9994 42C22.4815 42 23.772 41.3117 24.8752 40.116Z" fill="#E51D35"/>
</svg>
